<svg width="25" height="25" viewBox="0 0 25 25" fill="none" xmlns="http://www.w3.org/2000/svg">
<path d="M12.5 2.5C6.98 2.5 2.5 6.98 2.5 12.5C2.5 18.02 6.98 22.5 12.5 22.5C18.02 22.5 22.5 18.02 22.5 12.5C22.5 6.98 18.02 2.5 12.5 2.5ZM16.53 13.03L13.53 16.03C13.38 16.18 13.19 16.25 13 16.25C12.81 16.25 12.62 16.18 12.47 16.03C12.18 15.74 12.18 15.26 12.47 14.97L14.19 13.25H9C8.59 13.25 8.25 12.91 8.25 12.5C8.25 12.09 8.59 11.75 9 11.75H14.19L12.47 10.03C12.18 9.74 12.18 9.26 12.47 8.97C12.76 8.68 13.24 8.68 13.53 8.97L16.53 11.97C16.82 12.26 16.82 12.74 16.53 13.03Z" fill="white"/>
</svg>
