<svg width="148" height="148" viewBox="0 0 148 148" fill="none" xmlns="http://www.w3.org/2000/svg">
<g clip-path="url(#clip0_131_3499)">
<path d="M80.619 94.4207L37.9744 113.466L48.7769 73.7471L80.619 94.4207Z" fill="#0F9DCE"/>
<path d="M48.7771 73.7471L107.02 122.162L147.734 0L48.7771 73.7471Z" fill="#00D7DF"/>
<path d="M147.734 0L31.3305 62.4894L0 44.0798L147.734 0Z" fill="#00D7DF"/>
<path d="M76.0901 53.3919V96.4509L107.02 122.162L147.734 0L76.0901 53.3919Z" fill="#00B2CC"/>
<path d="M76.0901 21.3771V38.4611L147.734 0L76.0901 21.3771Z" fill="#00B2CC"/>
<path d="M115.98 147.601C98.1365 147.601 83.6201 133.084 83.6201 115.24C83.6201 97.3975 98.1365 82.88 115.98 82.88C133.823 82.88 148.341 97.3964 148.341 115.24C148.341 133.084 133.823 147.601 115.98 147.601Z" fill="#FA502E"/>
<path d="M37.9745 113.466L31.3306 62.4894L147.734 0L48.7771 73.7471L37.9745 113.466Z" fill="#00B2CC"/>
<path d="M76.0901 38.4611V53.3919L147.734 0L76.0901 38.4611Z" fill="#0F9DCE"/>
<path d="M148 115.541C148 97.7257 133.529 83.2285 115.724 83.1823V147.901C133.529 147.854 148 133.357 148 115.541Z" fill="#EA0016"/>
<path d="M125.161 104.804C124.73 104.568 124.255 104.418 123.764 104.362C123.273 104.306 122.776 104.347 122.301 104.48C121.825 104.614 121.382 104.838 120.995 105.14C120.608 105.442 120.285 105.817 120.046 106.242L113.062 118.604L109.065 114.672C108.718 114.319 108.303 114.037 107.844 113.843C107.385 113.649 106.892 113.547 106.392 113.543C105.893 113.539 105.397 113.632 104.935 113.818C104.473 114.004 104.053 114.279 103.7 114.626C103.346 114.974 103.067 115.387 102.878 115.842C102.689 116.296 102.594 116.784 102.598 117.275C102.602 117.766 102.706 118.252 102.903 118.703C103.1 119.154 103.387 119.563 103.746 119.904L111.27 127.304C111.981 128.005 112.94 128.39 113.929 128.39L114.45 128.353C115.027 128.274 115.577 128.064 116.057 127.74C116.537 127.416 116.934 126.987 117.217 126.486L126.621 109.836C126.861 109.412 127.014 108.945 127.07 108.462C127.127 107.979 127.086 107.49 126.951 107.023C126.815 106.556 126.588 106.119 126.28 105.739C125.973 105.358 125.593 105.041 125.161 104.804Z" fill="#FEE6E7"/>
</g>
<defs>
<clipPath id="clip0_131_3499">
<rect width="148" height="148" fill="white"/>
</clipPath>
</defs>
</svg>
